PathFileType	4	(X/Y/Z)	C:/Users/beibeiliu/ov580/test_trc\sequence.1_training_dense_left.trc
DataRate	CameraRate	NumFrames	NumMarkers	Units	OrigDataRate	OrigDataStartFrame	OrigNumFrames
120	120	10	19	mm	120	87	345
Frame#	Time	ThumbCMC			ThumbMCP			ThumbIP			ThumbTip			IndexMCP			IndexPIP			IndexTip			MiddleMCP			MiddlePIP			MiddleTip			RingMCP			RingPIP			RingTip			PinkyMCP			PinkyPIP			PinkyTip			BackHand1			BackHand2			BackHand3	
		X0	Y0	Z0	X1	Y1	Z1	X2	Y2	Z2	X3	Y3	Z3	X4	Y4	Z4	X5	Y5	Z5	X6	Y6	Z6	X7	Y7	Z7	X8	Y8	Z8	X9	Y9	Z9	X10	Y10	Z10	X11	Y11	Z11	X12	Y12	Z12	X13	Y13	Z13	X14	Y14	Z14	X15	Y15	Z15	X16	Y16	Z16	X17	Y17	Z17	X18	Y18	Z18	
86	0.716667	-206.891	17.8716	3.28498	-210.358	25.814	-24.7166	-220.581	24.8502	-46.2342	-223.464	27.7445	-62.9633	-260.242	14.2137	-33.7627	-277.445	12.8091	-50.4264	-290.359	16.8189	-70.9197	-275.755	-5.05103	-28.7209	-296.117	-8.94092	-42.9078	-312.618	-12.2423	-55.4673	-272.461	-24.3322	-20.4066	-289.488	-28.1583	-30.1148	-305.785	-32.3125	-43.4782	-259.157	-46.0591	-7.49545	-276.584	-47.6907	-18.9442	-293.638	-57.2799	-25.4614	-245.917	-19.6276	10.0361	-229.452	-15.6245	33.6237	-234.51	5.81227	13.2668	
87	0.725	-204.295	18.8373	3.59591	-202.981	27.161	-23.3755	-212.791	29.9287	-45.5362	-219.814	33.5376	-67.422	-258.874	18.0671	-31.9708	-273.569	24.0248	-50.491	-287.259	26.2261	-69.212	-272.872	1.01702	-27.4926	-294.546	0.488651	-40.7128	-313.554	3.22725	-57.1798	-272.618	-16.4898	-19.2403	-291.154	-16.3918	-32.3897	-307.695	-17.0136	-44.2922	-261.45	-35.8481	-9.55974	-278.438	-42.235	-17.1503	-294.364	-46.9295	-25.7683	-244.619	-14.0381	9.54327	-228.897	-14.7571	31.8444	-231.495	8.96403	13.2704	
88	0.733333	-199.788	18.345	2.98857	-199.853	26.0997	-24.319	-208.178	32.812	-46.1113	-213.222	33.3825	-62.8074	-253.055	27.8981	-32.949	-268.087	33.4427	-50.7601	-281.161	37.8194	-67.4455	-269.867	7.12173	-25.5905	-289.546	10.3576	-39.574	-309.766	16.3568	-56.7668	-271.307	-10.4882	-18.5644	-288.752	-5.86247	-30.4409	-309.335	-7.53871	-43.6045	-262.338	-30.5899	-10.236	-282.16	-34.1099	-18.2108	-300.546	-33.8684	-27.681	-245.752	-10.4393	6.9761	-232.231	-14.467	30.5717	-230.702	8.62892	14.5445	
89	0.741667	-194.699	19.774	2.49	-195.671	26.5307	-24.1205	-201.859	32.1025	-43.8358	-206.798	36.9376	-63.8254	-250.443	30.0496	-32.996	-265.581	40.8907	-51.6938	-279.638	46.6129	-71.3932	-268.6	17.9613	-28.3438	-288.634	27.1637	-43.9973	-305.675	27.9079	-55.6841	-269.488	-2.24306	-19.5314	-287.035	3.7542	-31.4561	-308.578	8.3524	-46.0772	-267.054	-21.526	-12.005	-285.079	-24.5022	-20.093	-303.211	-21.0791	-30.849	-243.929	-8.75473	9.95415	-229.703	-9.95397	32.3367	-225.559	12.0678	14.8162	
90	0.75	-195.886	16.449	2.06438	-191.051	26.787	-25.0522	-199.649	34.1504	-45.895	-202.86	39.2374	-65.0704	-248.284	37.5738	-34.4841	-257.614	48.8286	-50.0612	-268.733	57.6924	-68.2616	-267.764	24.7446	-28.2928	-285.371	34.6138	-43.7668	-303.172	41.9676	-58.6441	-269.938	8.94974	-22.2288	-290.116	14.7596	-34.0745	-303.094	21.6728	-44.3737	-265.349	-16.4061	-13.1635	-282.82	-13.5678	-20.7743	-303.161	-8.34328	-31.9209	-246.789	-4.28224	8.44211	-234.236	-8.56509	27.311	-225.753	15.5755	14.8433	
91	0.758333	-193.33	14.2171	1.14624	-190.198	21.9054	-23.5137	-193.427	32.9965	-46.2449	-200.475	36.982	-64.3927	-238.163	44.0785	-33.9808	-252.966	52.7444	-50.8816	-263.272	63.5149	-68.2254	-262.575	33.7146	-30.7709	-277.919	42.8584	-41.1569	-298.494	51.4542	-55.8378	-265.478	14.3636	-20.897	-289.458	22.5005	-32.0494	-300.059	34.5376	-45.5055	-271.685	-5.72643	-13.9917	-289.089	-3.12014	-22.5029	-301.8	5.70003	-33.4025	-241.323	2.40284	8.74336	-231.789	-5.78484	29.45	-222.964	15.0972	13.947	
92	0.766667	-191.062	10.8353	1.8073	-188.098	21.0093	-25.3981	-192.334	29.0121	-44.5263	-196.803	38.6585	-66.6133	-235.699	47.4899	-36.2538	-246.508	59.6646	-51.3553	-256.221	69.9287	-67.2652	-254.624	38.0089	-29.126	-275.704	52.1017	-43.4869	-289.994	62.5388	-55.132	-268.026	19.1091	-20.8788	-282.649	35.0649	-33.4656	-299.005	43.107	-43.9367	-268.979	-0.661598	-13.6665	-287.207	8.65645	-22.7151	-297.32	16.4032	-31.3332	-243.017	7.76129	5.74793	-233.372	-1.86389	25.203	-223.479	19.344	10.6213	
93	0.775	-188.371	9.28255	1.4607	-185.979	20.8077	-27.2445	-186.098	30.6629	-45.9338	-193.317	38.94	-66.8926	-228.473	48.7081	-33.9313	-239.455	64.6734	-53.4446	-248.679	73.4948	-65.9165	-253.09	44.2832	-29.0015	-267.439	58.496	-41.8969	-280.214	71.6271	-56.2171	-264.007	25.2568	-20.7499	-275.283	41.3025	-32.5736	-286.676	53.8332	-44.4373	-268.474	8.19882	-14.5229	-281.472	18.7417	-21.5113	-295.639	31.369	-31.1374	-241.98	9.19389	6.51417	-234.017	1.57053	28.5189	-218.383	19.8796	13.8044	
94	0.783333	-190.24	7.84506	-0.304256	-182.681	15.0424	-23.9251	-182.962	27.8186	-45.7623	-185.307	36.0111	-64.3221	-225.025	50.5292	-34.1564	-231.877	67.4088	-53.0511	-235.63	82.2798	-68.3913	-245.979	47.4151	-28.4714	-257.661	65.9676	-43.8009	-274.904	81.4052	-57.2659	-259.455	32.813	-21.1552	-273.491	48.1125	-32.6153	-282.543	64.0207	-45.0463	-269.781	13.7971	-13.4378	-280.258	26.2355	-22.5072	-294.434	37.3776	-28.778	-243.722	14.8584	6.88319	-232.304	1.14982	27.5947	-217.565	21.2904	10.1734	
95	0.791667	-190.957	6.47792	-1.12776	-182.232	15.1063	-26.3794	-185.054	25.7242	-44.2102	-184.885	31.7656	-61.0791	-221.649	52.5761	-35.0927	-226.891	66.8263	-49.3626	-228.297	81.3884	-65.9308	-246.031	50.1618	-27.6927	-255.858	70.4407	-43.3313	-265.572	87.2548	-55.626	-254.501	36.3907	-21.8531	-267.101	52.6318	-31.9933	-279.878	67.3667	-42.2474	-266.54	21.2385	-13.7674	-279.979	31.5663	-20.5134	-290.271	44.5045	-26.6046	-238.9	14.1848	7.7707	-230.463	2.72359	29.1657	-214.214	21.1382	12.1694	
